<mxfile host="Electron" agent="Mozilla/5.0 (Windows NT 10.0; Win64; x64) AppleWebKit/537.36 (KHTML, like Gecko) draw.io/26.1.1 Chrome/132.0.6834.210 Electron/34.3.3 Safari/537.36" version="26.1.1">
  <diagram name="Page-1" id="WoM6VdlI9MWB3Uhfz1nz">
    <mxGraphModel dx="3166" dy="2200" grid="1" gridSize="10" guides="1" tooltips="1" connect="1" arrows="1" fold="1" page="1" pageScale="1" pageWidth="850" pageHeight="1100" math="0" shadow="0">
      <root>
        <object label="" gym_client="" id="0">
          <mxCell />
        </object>
        <mxCell id="1" parent="0" />
        <mxCell id="rTUKtQFbmERzjJpqpbQ3-1" value="gym_client" style="shape=umlActor;verticalLabelPosition=bottom;verticalAlign=top;html=1;outlineConnect=0;" parent="1" vertex="1">
          <mxGeometry y="290" width="30" height="60" as="geometry" />
        </mxCell>
        <mxCell id="rTUKtQFbmERzjJpqpbQ3-41" value="Βέλτιστη αναζήτηση γυμναστηρίου&lt;div&gt;με βάση προσωπικό φιλτράρισμα&lt;/div&gt;" style="ellipse;whiteSpace=wrap;html=1;" parent="1" vertex="1">
          <mxGeometry x="190" y="170" width="120" height="80" as="geometry" />
        </mxCell>
        <mxCell id="rTUKtQFbmERzjJpqpbQ3-43" value="Αξιολόγηση και κριτικές" style="ellipse;whiteSpace=wrap;html=1;" parent="1" vertex="1">
          <mxGeometry x="400" y="60" width="120" height="80" as="geometry" />
        </mxCell>
        <mxCell id="rTUKtQFbmERzjJpqpbQ3-46" value="Επιλογή προγράμματος σε γυμναστήριο" style="ellipse;whiteSpace=wrap;html=1;" parent="1" vertex="1">
          <mxGeometry x="400" y="170" width="120" height="80" as="geometry" />
        </mxCell>
        <mxCell id="rTUKtQFbmERzjJpqpbQ3-47" value="" style="endArrow=none;html=1;rounded=0;exitX=1;exitY=0.3333333333333333;exitDx=0;exitDy=0;exitPerimeter=0;entryX=0.025;entryY=0.379;entryDx=0;entryDy=0;entryPerimeter=0;" parent="1" source="rTUKtQFbmERzjJpqpbQ3-1" target="rdtRjZM0fHfOW98A3iZ1-2" edge="1">
          <mxGeometry width="50" height="50" relative="1" as="geometry">
            <mxPoint x="430" y="330" as="sourcePoint" />
            <mxPoint x="270" y="310" as="targetPoint" />
          </mxGeometry>
        </mxCell>
        <mxCell id="rTUKtQFbmERzjJpqpbQ3-48" value="Αλλαγή προωπικού κωδικού χρήστη" style="ellipse;whiteSpace=wrap;html=1;" parent="1" vertex="1">
          <mxGeometry x="400" y="375" width="120" height="80" as="geometry" />
        </mxCell>
        <mxCell id="rTUKtQFbmERzjJpqpbQ3-53" value="Επιλογή γυμναστή για personal training&amp;nbsp;" style="ellipse;whiteSpace=wrap;html=1;" parent="1" vertex="1">
          <mxGeometry x="400" y="280" width="120" height="80" as="geometry" />
        </mxCell>
        <mxCell id="rdtRjZM0fHfOW98A3iZ1-2" value="gym_client log-in" style="ellipse;whiteSpace=wrap;html=1;" parent="1" vertex="1">
          <mxGeometry x="190" y="60" width="120" height="80" as="geometry" />
        </mxCell>
        <mxCell id="rdtRjZM0fHfOW98A3iZ1-3" value="Weight tracking" style="ellipse;whiteSpace=wrap;html=1;" parent="1" vertex="1">
          <mxGeometry x="190" y="270" width="120" height="80" as="geometry" />
        </mxCell>
        <mxCell id="rdtRjZM0fHfOW98A3iZ1-7" value="Πληρωμή&amp;nbsp;" style="ellipse;whiteSpace=wrap;html=1;" parent="1" vertex="1">
          <mxGeometry x="600" y="210" width="120" height="80" as="geometry" />
        </mxCell>
        <mxCell id="rdtRjZM0fHfOW98A3iZ1-8" value="Πληρωμή με κάρτα" style="ellipse;whiteSpace=wrap;html=1;" parent="1" vertex="1">
          <mxGeometry x="730" y="110" width="120" height="80" as="geometry" />
        </mxCell>
        <mxCell id="rdtRjZM0fHfOW98A3iZ1-9" value="Πληρωμή με αντικαταβολή" style="ellipse;whiteSpace=wrap;html=1;" parent="1" vertex="1">
          <mxGeometry x="730" y="300" width="120" height="80" as="geometry" />
        </mxCell>
        <mxCell id="rdtRjZM0fHfOW98A3iZ1-18" value="" style="endArrow=classic;html=1;rounded=0;dashed=1;exitX=0;exitY=0.625;exitDx=0;exitDy=0;exitPerimeter=0;entryX=1;entryY=0;entryDx=0;entryDy=0;" parent="1" source="rTUKtQFbmERzjJpqpbQ3-43" target="rTUKtQFbmERzjJpqpbQ3-41" edge="1">
          <mxGeometry width="50" height="50" relative="1" as="geometry">
            <mxPoint x="270" y="110" as="sourcePoint" />
            <mxPoint x="320" y="60" as="targetPoint" />
          </mxGeometry>
        </mxCell>
        <mxCell id="rdtRjZM0fHfOW98A3iZ1-19" value="" style="endArrow=classic;html=1;rounded=0;dashed=1;exitX=0;exitY=0.5;exitDx=0;exitDy=0;entryX=1;entryY=0.5;entryDx=0;entryDy=0;" parent="1" source="rTUKtQFbmERzjJpqpbQ3-46" target="rTUKtQFbmERzjJpqpbQ3-41" edge="1">
          <mxGeometry width="50" height="50" relative="1" as="geometry">
            <mxPoint x="380" y="200" as="sourcePoint" />
            <mxPoint x="430" y="150" as="targetPoint" />
          </mxGeometry>
        </mxCell>
        <mxCell id="rdtRjZM0fHfOW98A3iZ1-20" value="" style="endArrow=classic;html=1;rounded=0;dashed=1;" parent="1" source="rTUKtQFbmERzjJpqpbQ3-53" target="rTUKtQFbmERzjJpqpbQ3-41" edge="1">
          <mxGeometry width="50" height="50" relative="1" as="geometry">
            <mxPoint x="380" y="200" as="sourcePoint" />
            <mxPoint x="430" y="150" as="targetPoint" />
          </mxGeometry>
        </mxCell>
        <mxCell id="rdtRjZM0fHfOW98A3iZ1-21" value="" style="endArrow=none;html=1;rounded=0;" parent="1" source="rdtRjZM0fHfOW98A3iZ1-3" edge="1">
          <mxGeometry width="50" height="50" relative="1" as="geometry">
            <mxPoint x="380" y="200" as="sourcePoint" />
            <mxPoint x="30" y="310" as="targetPoint" />
          </mxGeometry>
        </mxCell>
        <mxCell id="rdtRjZM0fHfOW98A3iZ1-22" value="" style="endArrow=none;html=1;rounded=0;entryX=0.006;entryY=0.596;entryDx=0;entryDy=0;entryPerimeter=0;" parent="1" target="rTUKtQFbmERzjJpqpbQ3-41" edge="1">
          <mxGeometry width="50" height="50" relative="1" as="geometry">
            <mxPoint x="30" y="310" as="sourcePoint" />
            <mxPoint x="430" y="150" as="targetPoint" />
          </mxGeometry>
        </mxCell>
        <mxCell id="rdtRjZM0fHfOW98A3iZ1-23" value="" style="endArrow=classic;html=1;rounded=0;exitX=0.019;exitY=0.404;exitDx=0;exitDy=0;exitPerimeter=0;entryX=0.992;entryY=0.388;entryDx=0;entryDy=0;entryPerimeter=0;dashed=1;" parent="1" source="rdtRjZM0fHfOW98A3iZ1-7" target="rTUKtQFbmERzjJpqpbQ3-46" edge="1">
          <mxGeometry width="50" height="50" relative="1" as="geometry">
            <mxPoint x="380" y="200" as="sourcePoint" />
            <mxPoint x="430" y="150" as="targetPoint" />
          </mxGeometry>
        </mxCell>
        <mxCell id="rdtRjZM0fHfOW98A3iZ1-24" value="" style="endArrow=classic;html=1;rounded=0;exitX=0.014;exitY=0.621;exitDx=0;exitDy=0;exitPerimeter=0;entryX=0.975;entryY=0.329;entryDx=0;entryDy=0;entryPerimeter=0;dashed=1;" parent="1" source="rdtRjZM0fHfOW98A3iZ1-7" target="rTUKtQFbmERzjJpqpbQ3-53" edge="1">
          <mxGeometry width="50" height="50" relative="1" as="geometry">
            <mxPoint x="380" y="200" as="sourcePoint" />
            <mxPoint x="430" y="150" as="targetPoint" />
          </mxGeometry>
        </mxCell>
        <mxCell id="rdtRjZM0fHfOW98A3iZ1-25" value="&quot;Include&quot;" style="text;html=1;align=center;verticalAlign=middle;whiteSpace=wrap;rounded=0;" parent="1" vertex="1">
          <mxGeometry x="550" y="195" width="60" height="30" as="geometry" />
        </mxCell>
        <mxCell id="rdtRjZM0fHfOW98A3iZ1-26" value="&quot;Include&quot;" style="text;html=1;align=center;verticalAlign=middle;whiteSpace=wrap;rounded=0;" parent="1" vertex="1">
          <mxGeometry x="550" y="280" width="60" height="30" as="geometry" />
        </mxCell>
        <mxCell id="rdtRjZM0fHfOW98A3iZ1-27" value="" style="endArrow=block;html=1;rounded=0;exitX=0;exitY=1;exitDx=0;exitDy=0;entryX=0.714;entryY=0.029;entryDx=0;entryDy=0;entryPerimeter=0;endFill=0;" parent="1" source="rdtRjZM0fHfOW98A3iZ1-8" target="rdtRjZM0fHfOW98A3iZ1-7" edge="1">
          <mxGeometry width="50" height="50" relative="1" as="geometry">
            <mxPoint x="380" y="200" as="sourcePoint" />
            <mxPoint x="430" y="150" as="targetPoint" />
          </mxGeometry>
        </mxCell>
        <mxCell id="rdtRjZM0fHfOW98A3iZ1-28" value="" style="endArrow=block;html=1;rounded=0;exitX=0.086;exitY=0.238;exitDx=0;exitDy=0;exitPerimeter=0;entryX=0.719;entryY=0.929;entryDx=0;entryDy=0;entryPerimeter=0;endFill=0;" parent="1" source="rdtRjZM0fHfOW98A3iZ1-9" target="rdtRjZM0fHfOW98A3iZ1-7" edge="1">
          <mxGeometry width="50" height="50" relative="1" as="geometry">
            <mxPoint x="380" y="200" as="sourcePoint" />
            <mxPoint x="690" y="300" as="targetPoint" />
          </mxGeometry>
        </mxCell>
        <mxCell id="rdtRjZM0fHfOW98A3iZ1-29" value="&quot;extend&quot;" style="text;html=1;align=center;verticalAlign=middle;whiteSpace=wrap;rounded=0;" parent="1" vertex="1">
          <mxGeometry x="310" y="120" width="60" height="30" as="geometry" />
        </mxCell>
        <mxCell id="rdtRjZM0fHfOW98A3iZ1-30" value="&quot;extend&quot;" style="text;html=1;align=center;verticalAlign=middle;whiteSpace=wrap;rounded=0;" parent="1" vertex="1">
          <mxGeometry x="330" y="180" width="60" height="30" as="geometry" />
        </mxCell>
        <mxCell id="rdtRjZM0fHfOW98A3iZ1-31" value="&quot;extend&quot;" style="text;html=1;align=center;verticalAlign=middle;whiteSpace=wrap;rounded=0;" parent="1" vertex="1">
          <mxGeometry x="340" y="240" width="60" height="30" as="geometry" />
        </mxCell>
        <mxCell id="rdtRjZM0fHfOW98A3iZ1-34" value="Διαχείρηση προφίλ" style="ellipse;whiteSpace=wrap;html=1;" parent="1" vertex="1">
          <mxGeometry x="190" y="375" width="120" height="80" as="geometry" />
        </mxCell>
        <mxCell id="rdtRjZM0fHfOW98A3iZ1-36" value="" style="endArrow=none;html=1;rounded=0;exitX=0;exitY=0;exitDx=0;exitDy=0;entryX=1;entryY=0.3333333333333333;entryDx=0;entryDy=0;entryPerimeter=0;" parent="1" source="rdtRjZM0fHfOW98A3iZ1-34" target="rTUKtQFbmERzjJpqpbQ3-1" edge="1">
          <mxGeometry width="50" height="50" relative="1" as="geometry">
            <mxPoint x="370" y="370" as="sourcePoint" />
            <mxPoint x="420" y="320" as="targetPoint" />
          </mxGeometry>
        </mxCell>
        <mxCell id="rdtRjZM0fHfOW98A3iZ1-37" value="" style="endArrow=classic;html=1;rounded=0;dashed=1;exitX=0;exitY=0.5;exitDx=0;exitDy=0;entryX=1;entryY=0.5;entryDx=0;entryDy=0;" parent="1" source="rTUKtQFbmERzjJpqpbQ3-48" target="rdtRjZM0fHfOW98A3iZ1-34" edge="1">
          <mxGeometry width="50" height="50" relative="1" as="geometry">
            <mxPoint x="150" y="610" as="sourcePoint" />
            <mxPoint x="200" y="560" as="targetPoint" />
          </mxGeometry>
        </mxCell>
        <mxCell id="rdtRjZM0fHfOW98A3iZ1-38" value="&quot;extend&quot;" style="text;html=1;align=center;verticalAlign=middle;whiteSpace=wrap;rounded=0;" parent="1" vertex="1">
          <mxGeometry x="330" y="390" width="60" height="30" as="geometry" />
        </mxCell>
        <mxCell id="koaHBDYHnwQ9m3PcKFgg-1" value="gym_owner&lt;div&gt;&lt;br&gt;&lt;/div&gt;" style="shape=umlActor;verticalLabelPosition=bottom;verticalAlign=top;html=1;outlineConnect=0;" parent="1" vertex="1">
          <mxGeometry x="10" y="660" width="30" height="60" as="geometry" />
        </mxCell>
        <mxCell id="koaHBDYHnwQ9m3PcKFgg-2" value="" style="endArrow=none;html=1;rounded=0;" parent="1" edge="1">
          <mxGeometry width="50" height="50" relative="1" as="geometry">
            <mxPoint x="40" y="680" as="sourcePoint" />
            <mxPoint x="160" y="570" as="targetPoint" />
          </mxGeometry>
        </mxCell>
        <mxCell id="koaHBDYHnwQ9m3PcKFgg-3" value="&lt;p style=&quot;line-height: normal;&quot; align=&quot;center&quot; class=&quot;MsoNormal&quot;&gt;&lt;span style=&quot;font-family: &amp;quot;Times New Roman&amp;quot;, serif;&quot; lang=&quot;EN-US&quot;&gt;&lt;font style=&quot;font-size: 14px;&quot;&gt;gym_owner sing-up&lt;/font&gt;&lt;/span&gt;&lt;/p&gt;" style="ellipse;whiteSpace=wrap;html=1;" parent="1" vertex="1">
          <mxGeometry x="160" y="530" width="140" height="80" as="geometry" />
        </mxCell>
        <mxCell id="koaHBDYHnwQ9m3PcKFgg-6" value="" style="endArrow=none;html=1;rounded=0;" parent="1" target="koaHBDYHnwQ9m3PcKFgg-7" edge="1">
          <mxGeometry width="50" height="50" relative="1" as="geometry">
            <mxPoint x="30" y="310" as="sourcePoint" />
            <mxPoint x="190" y="30" as="targetPoint" />
          </mxGeometry>
        </mxCell>
        <mxCell id="koaHBDYHnwQ9m3PcKFgg-7" value="gym_client sing-up" style="ellipse;whiteSpace=wrap;html=1;" parent="1" vertex="1">
          <mxGeometry x="180" y="-70" width="110" height="70" as="geometry" />
        </mxCell>
        <mxCell id="koaHBDYHnwQ9m3PcKFgg-8" value="" style="endArrow=none;html=1;rounded=0;exitX=1;exitY=0.3333333333333333;exitDx=0;exitDy=0;exitPerimeter=0;entryX=0;entryY=0.5;entryDx=0;entryDy=0;" parent="1" source="koaHBDYHnwQ9m3PcKFgg-1" target="koaHBDYHnwQ9m3PcKFgg-9" edge="1">
          <mxGeometry width="50" height="50" relative="1" as="geometry">
            <mxPoint x="70" y="690" as="sourcePoint" />
            <mxPoint x="170" y="670" as="targetPoint" />
          </mxGeometry>
        </mxCell>
        <mxCell id="koaHBDYHnwQ9m3PcKFgg-9" value="gym_owner log-in" style="ellipse;whiteSpace=wrap;html=1;" parent="1" vertex="1">
          <mxGeometry x="170" y="660" width="120" height="80" as="geometry" />
        </mxCell>
        <mxCell id="koaHBDYHnwQ9m3PcKFgg-10" value="dash board στατιστικών για ιδιοκτήτη" style="ellipse;whiteSpace=wrap;html=1;" parent="1" vertex="1">
          <mxGeometry x="410" y="640" width="120" height="80" as="geometry" />
        </mxCell>
        <mxCell id="koaHBDYHnwQ9m3PcKFgg-11" value="Ωρολόγιο πρόγραμμα γυμναστηρίου και ωράριο λειτουργίας" style="ellipse;whiteSpace=wrap;html=1;" parent="1" vertex="1">
          <mxGeometry x="410" y="520" width="130" height="90" as="geometry" />
        </mxCell>
        <mxCell id="koaHBDYHnwQ9m3PcKFgg-13" value="" style="endArrow=classic;html=1;rounded=0;exitX=0.014;exitY=0.621;exitDx=0;exitDy=0;exitPerimeter=0;entryX=0.975;entryY=0.329;entryDx=0;entryDy=0;entryPerimeter=0;dashed=1;" parent="1" edge="1">
          <mxGeometry width="50" height="50" relative="1" as="geometry">
            <mxPoint x="610" y="614" as="sourcePoint" />
            <mxPoint x="525" y="660" as="targetPoint" />
          </mxGeometry>
        </mxCell>
        <mxCell id="koaHBDYHnwQ9m3PcKFgg-14" value="&quot;extend&quot;" style="text;html=1;align=center;verticalAlign=middle;whiteSpace=wrap;rounded=0;" parent="1" vertex="1">
          <mxGeometry x="560" y="640" width="60" height="30" as="geometry" />
        </mxCell>
        <mxCell id="koaHBDYHnwQ9m3PcKFgg-16" value="" style="endArrow=classic;html=1;rounded=0;dashed=1;entryX=0.5;entryY=0;entryDx=0;entryDy=0;" parent="1" target="koaHBDYHnwQ9m3PcKFgg-9" edge="1">
          <mxGeometry width="50" height="50" relative="1" as="geometry">
            <mxPoint x="226" y="610" as="sourcePoint" />
            <mxPoint x="110" y="549" as="targetPoint" />
          </mxGeometry>
        </mxCell>
        <mxCell id="koaHBDYHnwQ9m3PcKFgg-17" value="&quot;Include&quot;" style="text;html=1;align=center;verticalAlign=middle;whiteSpace=wrap;rounded=0;" parent="1" vertex="1">
          <mxGeometry x="240" y="620" width="60" height="30" as="geometry" />
        </mxCell>
        <mxCell id="koaHBDYHnwQ9m3PcKFgg-22" value="" style="endArrow=classic;html=1;rounded=0;dashed=1;exitX=0.5;exitY=1;exitDx=0;exitDy=0;entryX=0.5;entryY=0;entryDx=0;entryDy=0;" parent="1" source="koaHBDYHnwQ9m3PcKFgg-7" target="rdtRjZM0fHfOW98A3iZ1-2" edge="1">
          <mxGeometry width="50" height="50" relative="1" as="geometry">
            <mxPoint x="236" y="31" as="sourcePoint" />
            <mxPoint x="120" y="-30" as="targetPoint" />
          </mxGeometry>
        </mxCell>
        <mxCell id="koaHBDYHnwQ9m3PcKFgg-24" value="&quot;Include&quot;" style="text;html=1;align=center;verticalAlign=middle;whiteSpace=wrap;rounded=0;" parent="1" vertex="1">
          <mxGeometry x="250" y="20" width="60" height="30" as="geometry" />
        </mxCell>
        <mxCell id="koaHBDYHnwQ9m3PcKFgg-26" value="dash board οικονομικών για ιδιοκτήτη" style="ellipse;whiteSpace=wrap;html=1;" parent="1" vertex="1">
          <mxGeometry x="410" y="740" width="120" height="80" as="geometry" />
        </mxCell>
        <mxCell id="koaHBDYHnwQ9m3PcKFgg-27" value="Διαχείρηση προφίλ" style="ellipse;whiteSpace=wrap;html=1;" parent="1" vertex="1">
          <mxGeometry x="200" y="800" width="120" height="80" as="geometry" />
        </mxCell>
        <mxCell id="koaHBDYHnwQ9m3PcKFgg-28" value="" style="endArrow=none;html=1;rounded=0;entryX=0.028;entryY=0.305;entryDx=0;entryDy=0;entryPerimeter=0;" parent="1" target="koaHBDYHnwQ9m3PcKFgg-27" edge="1">
          <mxGeometry width="50" height="50" relative="1" as="geometry">
            <mxPoint x="40" y="680" as="sourcePoint" />
            <mxPoint x="450" y="480" as="targetPoint" />
          </mxGeometry>
        </mxCell>
        <mxCell id="koaHBDYHnwQ9m3PcKFgg-34" value="" style="endArrow=classic;html=1;rounded=0;dashed=1;entryX=0.775;entryY=0.066;entryDx=0;entryDy=0;entryPerimeter=0;exitX=0.067;exitY=0.753;exitDx=0;exitDy=0;exitPerimeter=0;" parent="1" source="rTUKtQFbmERzjJpqpbQ3-48" target="koaHBDYHnwQ9m3PcKFgg-27" edge="1">
          <mxGeometry width="50" height="50" relative="1" as="geometry">
            <mxPoint x="390" y="430" as="sourcePoint" />
            <mxPoint x="302" y="192" as="targetPoint" />
          </mxGeometry>
        </mxCell>
        <mxCell id="koaHBDYHnwQ9m3PcKFgg-35" value="&quot;extend&quot;" style="text;html=1;align=center;verticalAlign=middle;whiteSpace=wrap;rounded=0;" parent="1" vertex="1">
          <mxGeometry x="310" y="520" width="60" height="30" as="geometry" />
        </mxCell>
        <mxCell id="koaHBDYHnwQ9m3PcKFgg-36" value="" style="endArrow=classic;html=1;rounded=0;dashed=1;entryX=0.946;entryY=0.228;entryDx=0;entryDy=0;exitX=0;exitY=1;exitDx=0;exitDy=0;entryPerimeter=0;" parent="1" source="koaHBDYHnwQ9m3PcKFgg-11" target="koaHBDYHnwQ9m3PcKFgg-27" edge="1">
          <mxGeometry width="50" height="50" relative="1" as="geometry">
            <mxPoint x="236" y="620" as="sourcePoint" />
            <mxPoint x="240" y="670" as="targetPoint" />
          </mxGeometry>
        </mxCell>
        <mxCell id="koaHBDYHnwQ9m3PcKFgg-37" value="&quot;extend&quot;" style="text;html=1;align=center;verticalAlign=middle;whiteSpace=wrap;rounded=0;" parent="1" vertex="1">
          <mxGeometry x="350" y="630" width="60" height="30" as="geometry" />
        </mxCell>
        <mxCell id="koaHBDYHnwQ9m3PcKFgg-47" value="Αλληλεπίδραση σε κριτικές και σχόλια" style="ellipse;whiteSpace=wrap;html=1;" parent="1" vertex="1">
          <mxGeometry x="600" y="570" width="120" height="80" as="geometry" />
        </mxCell>
      </root>
    </mxGraphModel>
  </diagram>
</mxfile>
